# Blender 3.4.1
# www.blender.org
mtllib Glass.mtl
o Cube.001
v 0.679808 0.038325 -0.249829
v 0.680121 0.021185 -0.248274
v 0.679808 -0.044011 -0.249829
v 0.680121 -0.026871 -0.248274
v 0.674317 0.159717 -0.277113
v 0.675870 0.145287 -0.269397
v 0.674488 -0.165551 -0.277001
v 0.675870 -0.150973 -0.269397
v 0.658490 0.230374 -0.355765
v 0.661352 0.221769 -0.341545
v 0.660175 -0.238695 -0.356530
v 0.662972 -0.230296 -0.342320
v 0.628015 0.277773 -0.507207
v 0.631342 0.275101 -0.490675
v 0.628014 -0.279723 -0.507207
v 0.631462 -0.277417 -0.490587
v 0.616503 0.277773 -0.564415
v 0.616502 -0.279723 -0.564415
v 0.566555 0.039448 -0.813044
v 0.566242 0.022308 -0.814599
v 0.566242 -0.025748 -0.814599
v 0.566555 -0.042888 -0.813044
v 0.572045 0.160840 -0.785760
v 0.570493 0.146409 -0.793476
v 0.571902 -0.164141 -0.785600
v 0.570493 -0.149850 -0.793476
v 0.587871 0.231447 -0.707092
v 0.585011 0.222892 -0.721328
v 0.586201 -0.233872 -0.705392
v 0.583356 -0.225409 -0.719760
v 0.691781 0.021184 -0.250630
v 0.691468 0.038324 -0.252184
v 0.691468 -0.044012 -0.252184
v 0.691781 -0.026872 -0.250630
v 0.687530 0.145286 -0.271752
v 0.685977 0.159716 -0.279468
v 0.686148 -0.165552 -0.279357
v 0.687530 -0.150974 -0.271752
v 0.673012 0.221768 -0.343900
v 0.670150 0.230373 -0.358120
v 0.671835 -0.238696 -0.358885
v 0.674632 -0.230297 -0.344676
v 0.643002 0.275100 -0.493030
v 0.639675 0.277772 -0.509562
v 0.639674 -0.279724 -0.509562
v 0.643122 -0.277418 -0.492942
v 0.578215 0.039447 -0.815400
v 0.577902 0.022307 -0.816954
v 0.577902 -0.025749 -0.816954
v 0.578215 -0.042889 -0.815400
v 0.583705 0.160839 -0.788116
v 0.582153 0.146408 -0.795832
v 0.582153 -0.149851 -0.795832
v 0.583562 -0.164142 -0.787956
v 0.599531 0.231446 -0.709447
v 0.596671 0.222891 -0.723683
v 0.595016 -0.225410 -0.722115
v 0.597861 -0.233873 -0.707747
v 0.628162 -0.279724 -0.566770
v 0.628163 0.277772 -0.566770
v 0.679808 0.038325 0.249829
v 0.680121 0.021185 0.248274
v 0.679808 -0.044011 0.249829
v 0.680121 -0.026871 0.248274
v 0.674317 0.159717 0.277113
v 0.675870 0.145287 0.269397
v 0.674488 -0.165551 0.277001
v 0.675870 -0.150973 0.269397
v 0.658490 0.230374 0.355765
v 0.661352 0.221769 0.341545
v 0.660175 -0.238695 0.356530
v 0.662972 -0.230296 0.342320
v 0.628015 0.277773 0.507207
v 0.631342 0.275101 0.490675
v 0.628014 -0.279723 0.507207
v 0.631462 -0.277417 0.490587
v 0.616503 0.277773 0.564415
v 0.616502 -0.279723 0.564415
v 0.566555 0.039448 0.813044
v 0.566242 0.022308 0.814599
v 0.566242 -0.025748 0.814599
v 0.566555 -0.042888 0.813044
v 0.572045 0.160840 0.785760
v 0.570493 0.146409 0.793476
v 0.571902 -0.164141 0.785600
v 0.570493 -0.149850 0.793476
v 0.587871 0.231447 0.707092
v 0.585011 0.222892 0.721328
v 0.586201 -0.233872 0.705392
v 0.583356 -0.225409 0.719760
v 0.691781 0.021184 0.250630
v 0.691468 0.038324 0.252184
v 0.691468 -0.044012 0.252184
v 0.691781 -0.026872 0.250630
v 0.687530 0.145286 0.271752
v 0.685977 0.159716 0.279468
v 0.686148 -0.165552 0.279357
v 0.687530 -0.150974 0.271752
v 0.673012 0.221768 0.343900
v 0.670150 0.230373 0.358120
v 0.671835 -0.238696 0.358885
v 0.674632 -0.230297 0.344676
v 0.643002 0.275100 0.493030
v 0.639675 0.277772 0.509562
v 0.639674 -0.279724 0.509562
v 0.643122 -0.277418 0.492942
v 0.578215 0.039447 0.815400
v 0.577902 0.022307 0.816954
v 0.577902 -0.025749 0.816954
v 0.578215 -0.042889 0.815400
v 0.583705 0.160839 0.788116
v 0.582153 0.146408 0.795832
v 0.582153 -0.149851 0.795832
v 0.583562 -0.164142 0.787956
v 0.599531 0.231446 0.709447
v 0.596671 0.222891 0.723683
v 0.595016 -0.225410 0.722115
v 0.597861 -0.233873 0.707747
v 0.628162 -0.279724 0.566770
v 0.628163 0.277772 0.566770
vn -0.9802 0.0001 0.1980
vn 0.9802 -0.0001 -0.1980
vn -0.1947 -0.1834 -0.9636
vn -0.1005 0.8616 -0.4976
vn -0.1339 -0.7370 -0.6625
vn -0.0991 -0.8659 -0.4904
vn 0.1972 0.0921 0.9760
vn -0.1359 0.7271 -0.6729
vn 0.1980 -0.0000 0.9802
vn 0.1972 -0.0921 0.9760
vn -0.0601 -0.9530 -0.2970
vn 0.1946 -0.1834 0.9636
vn 0.1739 0.4788 0.8605
vn -0.0600 0.9529 -0.2973
vn 0.1947 0.1834 0.9636
vn 0.1749 -0.4683 0.8661
vn 0.1360 0.7271 0.6729
vn 0.1011 0.8600 0.5001
vn 0.1383 -0.7155 0.6848
vn 0.0993 -0.8650 0.4918
vn 0.0613 0.9510 0.3030
vn 0.0311 0.9877 0.1534
vn 0.0538 -0.9623 0.2665
vn 0.0266 -0.9909 0.1319
vn -0.0001 -1.0000 -0.0000
vn -0.1972 0.0921 -0.9760
vn 0.0001 1.0000 -0.0000
vn -0.1972 -0.0921 -0.9760
vn -0.1980 -0.0000 -0.9802
vn -0.1738 0.4788 -0.8605
vn -0.1946 0.1834 -0.9636
vn -0.1728 -0.4884 -0.8553
vn -0.9802 0.0001 -0.1980
vn 0.9802 -0.0001 0.1980
vn -0.1947 -0.1834 0.9636
vn -0.1005 0.8616 0.4976
vn -0.1339 -0.7370 0.6625
vn -0.0991 -0.8659 0.4904
vn 0.1972 0.0921 -0.9760
vn -0.1359 0.7271 0.6729
vn 0.1980 -0.0000 -0.9802
vn 0.1972 -0.0921 -0.9760
vn -0.0601 -0.9530 0.2970
vn 0.1946 -0.1834 -0.9636
vn 0.1739 0.4788 -0.8605
vn -0.0600 0.9529 0.2973
vn 0.1947 0.1834 -0.9636
vn 0.1749 -0.4683 -0.8661
vn 0.1360 0.7271 -0.6729
vn 0.1011 0.8600 -0.5001
vn 0.1383 -0.7155 -0.6848
vn 0.0993 -0.8650 -0.4918
vn 0.0613 0.9510 -0.3030
vn 0.0311 0.9877 -0.1534
vn 0.0538 -0.9623 -0.2665
vn 0.0266 -0.9909 -0.1319
vn -0.1972 0.0921 0.9760
vn -0.1972 -0.0921 0.9760
vn -0.1980 -0.0000 0.9802
vn -0.1738 0.4788 0.8605
vn -0.1946 0.1834 0.9636
vn -0.1728 -0.4884 0.8553
vt 0.000000 0.000000
vt 0.000000 0.000000
vt 0.000000 0.000000
vt 0.000000 0.000000
vt 0.000000 0.000000
vt 0.000000 0.000000
vt 0.000000 0.000000
vt 0.000000 0.000000
vt 0.000000 0.000000
vt 0.000000 0.000000
vt 0.000000 0.000000
vt 0.000000 0.000000
vt 0.000000 0.000000
vt 0.000000 0.000000
vt 0.000000 0.000000
vt 0.000000 0.000000
vt 0.000000 0.000000
vt 0.000000 0.000000
vt 0.000000 0.000000
vt 0.000000 0.000000
vt 0.000000 0.000000
vt 0.000000 0.000000
vt 0.000000 0.000000
vt 0.000000 0.000000
vt 0.000000 0.000000
vt 0.000000 0.000000
vt 0.000000 0.000000
vt 0.000000 0.000000
vt 0.000000 0.000000
vt 0.000000 0.000000
vt 0.000000 0.000000
vt 0.000000 0.000000
vt 0.000000 0.000000
vt 0.000000 0.000000
vt 0.000000 0.000000
vt 0.000000 0.000000
vt 0.000000 0.000000
vt 0.000000 0.000000
vt 0.000000 0.000000
vt 0.000000 0.000000
vt 0.000000 0.000000
vt 0.000000 0.000000
vt 0.000000 0.000000
vt 0.000000 0.000000
vt 0.000000 0.000000
vt 0.000000 0.000000
vt 0.000000 0.000000
vt 0.000000 0.000000
vt 0.000000 0.000000
vt 0.000000 0.000000
vt 0.000000 0.000000
vt 0.000000 0.000000
vt 0.000000 0.000000
vt 0.000000 0.000000
vt 0.000000 0.000000
vt 0.000000 0.000000
vt 0.000000 0.000000
vt 0.000000 0.000000
vt 0.000000 0.000000
vt 0.000000 0.000000
vt 0.000000 0.000000
vt 0.000000 0.000000
vt 0.000000 0.000000
vt 0.000000 0.000000
vt 0.000000 0.000000
vt 0.000000 0.000000
vt 0.000000 0.000000
vt 0.000000 0.000000
vt 0.000000 0.000000
vt 0.000000 0.000000
vt 0.000000 0.000000
vt 0.000000 0.000000
vt 0.000000 0.000000
vt 0.000000 0.000000
vt 0.000000 0.000000
vt 0.000000 0.000000
vt 0.000000 0.000000
vt 0.000000 0.000000
vt 0.000000 0.000000
vt 0.000000 0.000000
vt 0.000000 0.000000
vt 0.000000 0.000000
vt 0.000000 0.000000
vt 0.000000 0.000000
vt 0.000000 0.000000
vt 0.000000 0.000000
vt 0.000000 0.000000
vt 0.000000 0.000000
vt 0.000000 0.000000
vt 0.000000 0.000000
vt 0.000000 0.000000
vt 0.000000 0.000000
vt 0.000000 0.000000
vt 0.000000 0.000000
vt 0.000000 0.000000
vt 0.000000 0.000000
vt 0.000000 0.000000
vt 0.000000 0.000000
vt 0.000000 0.000000
vt 0.000000 0.000000
vt 0.000000 0.000000
vt 0.000000 0.000000
vt 0.000000 0.000000
vt 0.000000 0.000000
vt 0.000000 0.000000
vt 0.000000 0.000000
vt 0.000000 0.000000
vt 0.000000 0.000000
vt 0.000000 0.000000
vt 0.000000 0.000000
vt 0.000000 0.000000
vt 0.000000 0.000000
vt 0.000000 0.000000
vt 0.000000 0.000000
vt 0.000000 0.000000
vt 0.000000 0.000000
vt 0.000000 0.000000
vt 0.000000 0.000000
vt 0.000000 0.000000
vt 0.000000 0.000000
s 0
f 2/2/1 1/1/1 6/6/1 5/5/1 10/10/1 9/9/1 14/14/1 13/13/1 17/17/1 27/27/1 28/28/1 23/23/1 24/24/1 19/19/1 20/20/1 21/21/1 22/22/1 26/26/1 25/25/1 30/30/1 29/29/1 18/18/1 15/15/1 16/16/1 11/11/1 12/12/1 7/7/1 8/8/1 3/3/1 4/4/1
f 31/31/2 34/34/2 33/33/2 38/38/2 37/37/2 42/42/2 41/41/2 46/46/2 45/45/2 59/59/2 58/58/2 57/57/2 54/54/2 53/53/2 50/50/2 49/49/2 48/48/2 47/47/2 52/52/2 51/51/2 56/56/2 55/55/2 60/60/2 44/44/2 43/43/2 40/40/2 39/39/2 36/36/2 35/35/2 32/32/2
f 26/26/3 22/22/3 50/50/3 53/53/3
f 28/28/4 27/27/4 55/55/4 56/56/4
f 30/30/5 25/25/5 54/54/5 57/57/5
f 29/29/6 30/30/6 57/57/6 58/58/6
f 1/1/7 2/2/7 31/31/7 32/32/7
f 23/23/8 28/28/8 56/56/8 51/51/8
f 2/2/9 4/4/9 34/34/9 31/31/9
f 4/4/10 3/3/10 33/33/10 34/34/10
f 18/18/11 29/29/11 58/58/11 59/59/11
f 3/3/12 8/8/12 38/38/12 33/33/12
f 5/5/13 6/6/13 35/35/13 36/36/13
f 27/27/14 17/17/14 60/60/14 55/55/14
f 6/6/15 1/1/15 32/32/15 35/35/15
f 8/8/16 7/7/16 37/37/16 38/38/16
f 10/10/17 5/5/17 36/36/17 39/39/17
f 9/9/18 10/10/18 39/39/18 40/40/18
f 7/7/19 12/12/19 42/42/19 37/37/19
f 12/12/20 11/11/20 41/41/20 42/42/20
f 14/14/21 9/9/21 40/40/21 43/43/21
f 13/13/22 14/14/22 43/43/22 44/44/22
f 11/11/23 16/16/23 46/46/23 41/41/23
f 16/16/24 15/15/24 45/45/24 46/46/24
f 15/15/25 18/18/25 59/59/25 45/45/25
f 20/20/26 19/19/26 47/47/26 48/48/26
f 17/17/27 13/13/27 44/44/27 60/60/27
f 22/22/28 21/21/28 49/49/28 50/50/28
f 21/21/29 20/20/29 48/48/29 49/49/29
f 24/24/30 23/23/30 51/51/30 52/52/30
f 19/19/31 24/24/31 52/52/31 47/47/31
f 25/25/32 26/26/32 53/53/32 54/54/32
f 62/62/33 64/64/33 63/63/33 68/68/33 67/67/33 72/72/33 71/71/33 76/76/33 75/75/33 78/78/33 89/89/33 90/90/33 85/85/33 86/86/33 82/82/33 81/81/33 80/80/33 79/79/33 84/84/33 83/83/33 88/88/33 87/87/33 77/77/33 73/73/33 74/74/33 69/69/33 70/70/33 65/65/33 66/66/33 61/61/33
f 91/91/34 92/92/34 95/95/34 96/96/34 99/99/34 100/100/34 103/103/34 104/104/34 120/120/34 115/115/34 116/116/34 111/111/34 112/112/34 107/107/34 108/108/34 109/109/34 110/110/34 113/113/34 114/114/34 117/117/34 118/118/34 119/119/34 105/105/34 106/106/34 101/101/34 102/102/34 97/97/34 98/98/34 93/93/34 94/94/34
f 86/86/35 113/113/35 110/110/35 82/82/35
f 88/88/36 116/116/36 115/115/36 87/87/36
f 90/90/37 117/117/37 114/114/37 85/85/37
f 89/89/38 118/118/38 117/117/38 90/90/38
f 61/61/39 92/92/39 91/91/39 62/62/39
f 83/83/40 111/111/40 116/116/40 88/88/40
f 62/62/41 91/91/41 94/94/41 64/64/41
f 64/64/42 94/94/42 93/93/42 63/63/42
f 78/78/43 119/119/43 118/118/43 89/89/43
f 63/63/44 93/93/44 98/98/44 68/68/44
f 65/65/45 96/96/45 95/95/45 66/66/45
f 87/87/46 115/115/46 120/120/46 77/77/46
f 66/66/47 95/95/47 92/92/47 61/61/47
f 68/68/48 98/98/48 97/97/48 67/67/48
f 70/70/49 99/99/49 96/96/49 65/65/49
f 69/69/50 100/100/50 99/99/50 70/70/50
f 67/67/51 97/97/51 102/102/51 72/72/51
f 72/72/52 102/102/52 101/101/52 71/71/52
f 74/74/53 103/103/53 100/100/53 69/69/53
f 73/73/54 104/104/54 103/103/54 74/74/54
f 71/71/55 101/101/55 106/106/55 76/76/55
f 76/76/56 106/106/56 105/105/56 75/75/56
f 75/75/25 105/105/25 119/119/25 78/78/25
f 80/80/57 108/108/57 107/107/57 79/79/57
f 77/77/27 120/120/27 104/104/27 73/73/27
f 82/82/58 110/110/58 109/109/58 81/81/58
f 81/81/59 109/109/59 108/108/59 80/80/59
f 84/84/60 112/112/60 111/111/60 83/83/60
f 79/79/61 107/107/61 112/112/61 84/84/61
f 85/85/62 114/114/62 113/113/62 86/86/62
